<svg width="331" height="61" viewBox="0 0 331 61" fill="none" xmlns="http://www.w3.org/2000/svg">
<path d="M0 30.44C0 28.5995 0.53614 26.831 1.60842 25.1346C2.6807 23.4382 4.03306 22.0938 5.66548 21.1015C7.29791 20.1093 8.93034 19.6051 10.5628 19.5891C12.0031 19.5891 13.1474 19.9973 13.9957 20.8135C14.1397 20.9735 14.2597 21.1095 14.3558 21.2216C14.4518 21.3336 14.5158 21.4136 14.5478 21.4616L14.5718 21.5337C14.6198 21.5337 14.8359 21.3256 15.22 20.9095C15.332 20.8135 15.452 20.7014 15.5801 20.5734C15.7081 20.4454 15.8361 20.3173 15.9642 20.1893C16.0922 20.0613 16.1722 19.9732 16.2042 19.9252L16.5643 19.5651H16.7084C16.9324 19.5651 17.0445 19.6212 17.0445 19.7332C17.0445 19.7972 16.7884 20.8935 16.2763 23.022C15.7001 25.2466 15.412 26.3669 15.412 26.3829C15.38 26.4629 15.34 26.511 15.292 26.527C15.244 26.543 15.1 26.559 14.8599 26.575H14.4758C14.3798 26.4789 14.3318 26.4069 14.3318 26.3589C14.3318 26.3429 14.3398 26.2869 14.3558 26.1909C14.3718 26.0948 14.3878 25.9348 14.4038 25.7107C14.4198 25.4867 14.4278 25.2306 14.4278 24.9425C14.4278 23.8062 14.1717 22.814 13.6596 21.9658C13.1474 21.1175 12.2752 20.6854 11.0429 20.6694C10.6268 20.6694 10.1787 20.7254 9.69854 20.8375C9.21842 20.9495 8.64226 21.1416 7.97009 21.4136C7.29791 21.6857 6.63374 22.1338 5.97757 22.758C5.32139 23.3821 4.73724 24.1263 4.22511 24.9906C3.71297 25.9028 3.30487 26.9671 3.00079 28.1834C2.69671 29.3997 2.54467 30.392 2.54467 31.1602C2.54467 32.9847 3.15283 34.297 4.36914 35.0972C5.13735 35.6414 6.08159 35.9134 7.20189 35.9134C8.65827 35.9134 9.95461 35.3693 11.0909 34.281C12.2272 33.1927 12.9794 32.0084 13.3475 30.7281C13.4115 30.52 13.4595 30.4 13.4915 30.368C13.5235 30.336 13.6516 30.32 13.8756 30.32C14.1957 30.32 14.3558 30.392 14.3558 30.536C14.3558 30.616 14.3478 30.6881 14.3318 30.7521C13.8676 32.4645 12.8754 33.9369 11.355 35.1692C9.83458 36.4016 8.20215 37.0177 6.45769 37.0177C4.64922 37.0177 3.12082 36.4176 1.87249 35.2172C0.624164 34.0169 0 32.4245 0 30.44Z" fill="black"/>
<path d="M16.3152 35.2336C16.3266 35.1657 16.3435 35.0752 16.3662 34.9621C16.3888 34.8489 16.4567 34.6339 16.5698 34.3171C16.683 34.0003 16.7961 33.7344 16.9093 33.5194C17.0224 33.3044 17.2091 33.0951 17.4694 32.8914C17.7296 32.6877 17.9899 32.5916 18.2501 32.6029C18.6574 32.6029 18.9969 32.7047 19.2685 32.9084C19.54 33.1121 19.7097 33.3044 19.7776 33.4855C19.8455 33.6665 19.8795 33.7853 19.8795 33.8419C19.8795 33.8645 19.8851 33.8758 19.8964 33.8758L20.0831 33.6891C20.7733 32.965 21.5597 32.6029 22.4423 32.6029C23.0533 32.6029 23.5455 32.7556 23.9189 33.0611C24.2923 33.3666 24.4847 33.8136 24.496 34.402C24.5073 34.9903 24.2923 35.8786 23.851 37.0666C23.4097 38.2547 23.1947 38.9732 23.2061 39.2221C23.2061 39.5163 23.3022 39.6634 23.4946 39.6634C23.5625 39.6634 23.6134 39.6578 23.6473 39.6465C23.9755 39.5899 24.2697 39.3749 24.5299 39.0015C24.7902 38.6281 24.9882 38.1755 25.1239 37.6437C25.1466 37.5532 25.2597 37.5079 25.4634 37.5079C25.6897 37.5079 25.8028 37.5532 25.8028 37.6437C25.8028 37.655 25.7802 37.7399 25.735 37.8983C25.6444 38.2264 25.52 38.5489 25.3616 38.8657C25.2032 39.1825 24.9429 39.4994 24.5808 39.8162C24.2188 40.133 23.8284 40.2857 23.4097 40.2744C22.8779 40.2744 22.4932 40.1217 22.2556 39.8162C22.018 39.5107 21.8992 39.1939 21.8992 38.8657C21.8992 38.6507 22.1029 37.9718 22.5102 36.829C22.9175 35.6862 23.1269 34.8263 23.1382 34.2492C23.1382 33.5816 22.8892 33.2478 22.3914 33.2478H22.3065C21.3334 33.2478 20.5131 33.8192 19.8455 34.9621L19.7267 35.1657L19.1666 37.44C18.7932 38.9223 18.5782 39.72 18.5217 39.8331C18.3746 40.1387 18.1313 40.2914 17.7918 40.2914C17.6448 40.2914 17.5259 40.2575 17.4354 40.1896C17.3449 40.1217 17.2827 40.0538 17.2487 39.9859C17.2148 39.918 17.2035 39.8614 17.2148 39.8162C17.2148 39.6691 17.4298 38.7469 17.8597 37.0497C18.2897 35.3524 18.516 34.4303 18.5386 34.2832C18.55 34.2266 18.5556 34.0965 18.5556 33.8928C18.5556 33.4515 18.4198 33.2309 18.1483 33.2309C17.7183 33.2309 17.3619 33.7966 17.079 34.9281C17.0111 35.1544 16.9772 35.2732 16.9772 35.2845C16.9545 35.3524 16.847 35.3864 16.6547 35.3864H16.4171C16.3492 35.3185 16.3152 35.2676 16.3152 35.2336Z" fill="black"/>
<path d="M36.5616 28.1594C36.5616 27.9513 36.6736 27.7913 36.8977 27.6793H52.1897C52.4297 27.8073 52.5498 27.9673 52.5498 28.1594C52.5498 28.3354 52.4377 28.4875 52.2137 28.6155L44.5797 28.6395H36.9457C36.6896 28.5595 36.5616 28.3995 36.5616 28.1594ZM36.5616 32.8166C36.5616 32.5765 36.6896 32.4165 36.9457 32.3365H52.2137C52.4377 32.4965 52.5498 32.6566 52.5498 32.8166C52.5498 33.0247 52.4297 33.1847 52.1897 33.2967H36.8977C36.6736 33.1847 36.5616 33.0247 36.5616 32.8166Z" fill="black"/>
<path d="M122.12 31.2082H63.4726V29.7678H122.12V31.2082Z" fill="black"/>
<path d="M91.8961 6.38568L91.584 6.50571C91.3599 6.58573 91.0399 6.66575 90.6238 6.74577C90.2076 6.82579 89.7435 6.88181 89.2314 6.91382H88.7753V5.80953H89.2314C89.9836 5.77752 90.6798 5.65749 91.3199 5.44943C91.9601 5.24138 92.4082 5.04933 92.6643 4.87328C92.9204 4.69723 93.1444 4.52119 93.3365 4.34514C93.3685 4.29713 93.4645 4.27312 93.6245 4.27312C93.7686 4.27312 93.9046 4.32114 94.0326 4.41716V11.595L94.0567 18.7969C94.1687 18.909 94.2647 18.981 94.3447 19.013C94.4247 19.045 94.6168 19.077 94.9209 19.109C95.225 19.141 95.7211 19.157 96.4093 19.157H97.0334V20.2613H96.7694C96.4333 20.2133 95.1609 20.1893 92.9524 20.1893C90.7758 20.1893 89.5195 20.2133 89.1834 20.2613H88.8953V19.157H89.5195C89.8716 19.157 90.1756 19.157 90.4317 19.157C90.6878 19.157 90.8878 19.149 91.0319 19.133C91.1759 19.117 91.3039 19.093 91.416 19.061C91.528 19.029 91.592 19.013 91.608 19.013C91.624 19.013 91.672 18.973 91.752 18.893C91.8321 18.8129 91.8801 18.7809 91.8961 18.7969V6.38568Z" fill="black"/>
<path d="M65.4172 46.0921C65.4332 45.9961 65.4572 45.868 65.4892 45.708C65.5212 45.548 65.6172 45.2439 65.7773 44.7958C65.9373 44.3476 66.0974 43.9715 66.2574 43.6675C66.4174 43.3634 66.6815 43.0673 67.0496 42.7792C67.4177 42.4912 67.7858 42.3551 68.1539 42.3711C68.73 42.3711 69.2102 42.5152 69.5943 42.8032C69.9784 43.0913 70.2184 43.3634 70.3145 43.6195C70.4105 43.8755 70.4585 44.0436 70.4585 44.1236C70.4585 44.1556 70.4665 44.1716 70.4825 44.1716L70.7466 43.9075C71.7228 42.8833 72.8351 42.3711 74.0834 42.3711C74.9477 42.3711 75.6439 42.5872 76.172 43.0193C76.7001 43.4514 76.9722 44.0836 76.9882 44.9158C77.0042 45.748 76.7001 47.0043 76.076 48.6848C75.4518 50.3652 75.1477 51.3815 75.1637 51.7336C75.1637 52.1497 75.2998 52.3577 75.5718 52.3577C75.6679 52.3577 75.7399 52.3497 75.7879 52.3337C76.252 52.2537 76.6681 51.9496 77.0362 51.4215C77.4043 50.8934 77.6844 50.2532 77.8764 49.501C77.9084 49.373 78.0685 49.3089 78.3566 49.3089C78.6767 49.3089 78.8367 49.373 78.8367 49.501C78.8367 49.517 78.8047 49.637 78.7407 49.8611C78.6126 50.3252 78.4366 50.7813 78.2125 51.2294C77.9885 51.6776 77.6204 52.1257 77.1082 52.5738C76.5961 53.0219 76.044 53.238 75.4518 53.222C74.6996 53.222 74.1555 53.0059 73.8194 52.5738C73.4833 52.1417 73.3152 51.6936 73.3152 51.2294C73.3152 50.9254 73.6033 49.9651 74.1795 48.3487C74.7556 46.7323 75.0517 45.5159 75.0677 44.6997C75.0677 43.7555 74.7156 43.2834 74.0114 43.2834H73.8914C72.515 43.2834 71.3547 44.0916 70.4105 45.708L70.2424 45.9961L69.4502 49.2129C68.9221 51.3095 68.618 52.4378 68.538 52.5978C68.3299 53.0299 67.9858 53.246 67.5057 53.246C67.2977 53.246 67.1296 53.198 67.0016 53.1019C66.8736 53.0059 66.7855 52.9099 66.7375 52.8139C66.6895 52.7178 66.6735 52.6378 66.6895 52.5738C66.6895 52.3657 66.9936 51.0614 67.6017 48.6608C68.2099 46.2601 68.53 44.9558 68.562 44.7477C68.578 44.6677 68.586 44.4837 68.586 44.1956C68.586 43.5714 68.394 43.2594 68.0099 43.2594C67.4017 43.2594 66.8976 44.0596 66.4975 45.66C66.4014 45.9801 66.3534 46.1481 66.3534 46.1641C66.3214 46.2601 66.1694 46.3082 65.8973 46.3082H65.5612C65.4652 46.2121 65.4172 46.1401 65.4172 46.0921Z" fill="black"/>
<path d="M85.9905 47.2924C85.9905 47.2924 85.9905 47.1884 85.9905 46.9803C85.9905 46.7723 86.1026 46.6122 86.3266 46.5002H93.5045V42.8993L93.5285 39.2983C93.6886 39.0903 93.8406 38.9862 93.9846 38.9862C94.1927 38.9862 94.3527 39.1063 94.4648 39.3463V46.5002H101.619C101.859 46.6282 101.979 46.7883 101.979 46.9803C101.979 47.1724 101.859 47.3324 101.619 47.4605H94.4648V54.6143C94.3367 54.8384 94.1927 54.9504 94.0326 54.9504H93.9846H93.9366C93.7446 54.9504 93.6005 54.8384 93.5045 54.6143V47.4605H86.3266C86.1026 47.3484 85.9905 47.1884 85.9905 46.9803V47.2924Z" fill="black"/>
<path d="M113.79 39.1063L113.478 39.2263C113.254 39.3063 112.934 39.3863 112.517 39.4664C112.101 39.5464 111.637 39.6024 111.125 39.6344H110.669V38.5301H111.125C111.877 38.4981 112.574 38.3781 113.214 38.17C113.854 37.962 114.302 37.7699 114.558 37.5939C114.814 37.4178 115.038 37.2418 115.23 37.0657C115.262 37.0177 115.358 36.9937 115.518 36.9937C115.662 36.9937 115.798 37.0417 115.926 37.1378V44.3156L115.95 51.5175C116.062 51.6296 116.158 51.7016 116.238 51.7336C116.318 51.7656 116.511 51.7976 116.815 51.8296C117.119 51.8616 117.615 51.8776 118.303 51.8776H118.927V52.9819H118.663C118.327 52.9339 117.055 52.9099 114.846 52.9099C112.67 52.9099 111.413 52.9339 111.077 52.9819H110.789V51.8776H111.413C111.765 51.8776 112.069 51.8776 112.325 51.8776C112.582 51.8776 112.782 51.8696 112.926 51.8536C113.07 51.8376 113.198 51.8136 113.31 51.7816C113.422 51.7496 113.486 51.7336 113.502 51.7336C113.518 51.7336 113.566 51.6936 113.646 51.6135C113.726 51.5335 113.774 51.5015 113.79 51.5175V39.1063Z" fill="black"/>
<path d="M141.853 59.0795C141.853 59.1275 141.805 59.1995 141.709 59.2956H140.965C140.933 59.2635 140.709 59.0475 140.293 58.6474C139.877 58.2473 139.517 57.9032 139.212 57.6151C138.908 57.327 138.476 56.8389 137.916 56.1507C137.356 55.4626 136.86 54.8144 136.428 54.2062C135.996 53.5981 135.492 52.7898 134.915 51.7816C134.339 50.7733 133.843 49.7731 133.427 48.7808C133.011 47.7885 132.571 46.5962 132.107 45.2039C131.643 43.8115 131.282 42.4031 131.026 40.9788C130.77 39.5544 130.538 37.93 130.33 36.1055C130.122 34.281 130.026 32.4085 130.042 30.488C130.042 19.109 132.955 10.2267 138.78 3.84102C139.148 3.44092 139.493 3.08882 139.813 2.78474C140.133 2.48066 140.397 2.2246 140.605 2.01654C140.813 1.80849 140.933 1.70446 140.965 1.70446H141.709C141.805 1.80049 141.853 1.8725 141.853 1.92052C141.853 2.00054 141.693 2.20859 141.373 2.54468C141.053 2.88077 140.637 3.35289 140.125 3.96105C139.613 4.56921 139.036 5.32941 138.396 6.24165C137.756 7.15389 137.108 8.29819 136.452 9.67455C135.796 11.0509 135.187 12.5793 134.627 14.2598C134.067 15.9402 133.587 17.9567 133.187 20.3093C132.787 22.662 132.531 25.1906 132.419 27.8953C132.387 28.5035 132.371 29.3757 132.371 30.512C132.371 36.7376 133.123 42.1791 134.627 46.8363C136.132 51.4935 138.452 55.4465 141.589 58.6954C141.765 58.8874 141.853 59.0155 141.853 59.0795Z" fill="black"/>
<path d="M145.31 9.96262C144.878 9.96262 144.534 9.81858 144.278 9.5305C144.022 9.24243 143.894 8.89033 143.894 8.47422C143.894 7.33793 144.318 6.35367 145.166 5.52145C146.014 4.68923 147.071 4.27312 148.335 4.27312C149.791 4.27312 151.008 4.72124 151.984 5.61748C152.96 6.51371 153.456 7.67402 153.472 9.09839C153.472 9.78657 153.312 10.4427 152.992 11.0669C152.672 11.6911 152.288 12.2352 151.84 12.6993C151.392 13.1635 150.751 13.7556 149.919 14.4758C149.343 14.9719 148.543 15.7081 147.519 16.6844L146.102 18.0287L147.927 18.0527C150.439 18.0527 151.776 18.0127 151.936 17.9327C152.048 17.9007 152.24 17.1885 152.512 15.7961V15.7241H153.472V15.7961C153.456 15.8442 153.352 16.5723 153.16 17.9807C152.968 19.3891 152.848 20.1253 152.8 20.1893V20.2613H143.894V19.8052V19.5171C143.894 19.4051 143.942 19.2851 144.038 19.157C144.134 19.029 144.374 18.7489 144.758 18.3168C145.222 17.8047 145.622 17.3566 145.958 16.9725C146.102 16.8124 146.374 16.5163 146.774 16.0842C147.175 15.6521 147.447 15.356 147.591 15.196C147.735 15.0359 147.967 14.7719 148.287 14.4038C148.607 14.0357 148.831 13.7636 148.959 13.5876C149.087 13.4115 149.271 13.1715 149.511 12.8674C149.751 12.5633 149.919 12.3072 150.015 12.0992C150.111 11.8911 150.231 11.6591 150.375 11.403C150.519 11.1469 150.623 10.8909 150.687 10.6348C150.751 10.3787 150.807 10.1387 150.856 9.9146C150.904 9.69054 150.928 9.42647 150.928 9.12239C150.928 8.11413 150.655 7.2419 150.111 6.50571C149.567 5.76952 148.791 5.40142 147.783 5.40142C147.255 5.40142 146.79 5.53746 146.39 5.80953C145.99 6.0816 145.71 6.34567 145.55 6.60173C145.39 6.8578 145.31 7.00984 145.31 7.05785C145.31 7.07386 145.35 7.08186 145.43 7.08186C145.718 7.08186 146.014 7.19389 146.318 7.41795C146.622 7.64201 146.774 8.0101 146.774 8.52224C146.774 8.92234 146.646 9.25843 146.39 9.5305C146.134 9.80257 145.774 9.94661 145.31 9.96262Z" fill="black"/>
<path d="M155.201 13.3715C155.217 13.2755 155.241 13.1475 155.273 12.9874C155.305 12.8274 155.401 12.5233 155.561 12.0752C155.721 11.6271 155.881 11.251 156.041 10.9469C156.201 10.6428 156.465 10.3467 156.833 10.0586C157.201 9.77057 157.569 9.63454 157.937 9.65054C158.514 9.65054 158.994 9.79458 159.378 10.0827C159.762 10.3707 160.002 10.6428 160.098 10.8989C160.194 11.1549 160.242 11.323 160.242 11.403C160.242 11.435 160.25 11.451 160.266 11.451L160.53 11.1869C161.506 10.1627 162.619 9.65054 163.867 9.65054C164.731 9.65054 165.427 9.8666 165.956 10.2987C166.484 10.7308 166.756 11.363 166.772 12.1952C166.788 13.0274 166.484 14.2838 165.859 15.9642C165.235 17.6446 164.931 18.6609 164.947 19.013C164.947 19.4291 165.083 19.6372 165.355 19.6372C165.451 19.6372 165.523 19.6292 165.571 19.6132C166.036 19.5331 166.452 19.2291 166.82 18.7009C167.188 18.1728 167.468 17.5326 167.66 16.7804C167.692 16.6524 167.852 16.5884 168.14 16.5884C168.46 16.5884 168.62 16.6524 168.62 16.7804C168.62 16.7964 168.588 16.9164 168.524 17.1405C168.396 17.6046 168.22 18.0607 167.996 18.5089C167.772 18.957 167.404 19.4051 166.892 19.8532C166.38 20.3013 165.827 20.5174 165.235 20.5014C164.483 20.5014 163.939 20.2853 163.603 19.8532C163.267 19.4211 163.099 18.973 163.099 18.5089C163.099 18.2048 163.387 17.2445 163.963 15.6281C164.539 14.0117 164.835 12.7954 164.851 11.9792C164.851 11.0349 164.499 10.5628 163.795 10.5628H163.675C162.299 10.5628 161.138 11.371 160.194 12.9874L160.026 13.2755L159.234 16.4923C158.706 18.5889 158.402 19.7172 158.322 19.8772C158.113 20.3093 157.769 20.5254 157.289 20.5254C157.081 20.5254 156.913 20.4774 156.785 20.3814C156.657 20.2853 156.569 20.1893 156.521 20.0933C156.473 19.9973 156.457 19.9172 156.473 19.8532C156.473 19.6452 156.777 18.3408 157.385 15.9402C157.993 13.5396 158.313 12.2352 158.346 12.0272C158.362 11.9471 158.37 11.7631 158.37 11.475C158.37 10.8509 158.177 10.5388 157.793 10.5388C157.185 10.5388 156.681 11.339 156.281 12.9394C156.185 13.2595 156.137 13.4275 156.137 13.4435C156.105 13.5396 155.953 13.5876 155.681 13.5876H155.345C155.249 13.4915 155.201 13.4195 155.201 13.3715Z" fill="black"/>
<path d="M149.199 46.0681C149.215 45.972 149.239 45.844 149.271 45.684C149.303 45.5239 149.399 45.2198 149.559 44.7717C149.719 44.3236 149.879 43.9475 150.039 43.6434C150.199 43.3394 150.463 43.0433 150.832 42.7552C151.2 42.4671 151.568 42.3311 151.936 42.3471C152.512 42.3471 152.992 42.4911 153.376 42.7792C153.76 43.0673 154 43.3394 154.096 43.5954C154.192 43.8515 154.24 44.0195 154.24 44.0996C154.24 44.1316 154.248 44.1476 154.264 44.1476L154.528 43.8835C155.505 42.8592 156.617 42.3471 157.865 42.3471C158.73 42.3471 159.426 42.5632 159.954 42.9953C160.482 43.4274 160.754 44.0595 160.77 44.8918C160.786 45.724 160.482 46.9803 159.858 48.6608C159.234 50.3412 158.93 51.3575 158.946 51.7096C158.946 52.1257 159.082 52.3337 159.354 52.3337C159.45 52.3337 159.522 52.3257 159.57 52.3097C160.034 52.2297 160.45 51.9256 160.818 51.3975C161.186 50.8693 161.466 50.2292 161.658 49.477C161.69 49.3489 161.85 49.2849 162.138 49.2849C162.459 49.2849 162.619 49.3489 162.619 49.477C162.619 49.493 162.587 49.613 162.523 49.8371C162.395 50.3012 162.219 50.7573 161.994 51.2054C161.77 51.6535 161.402 52.1017 160.89 52.5498C160.378 52.9979 159.826 53.2139 159.234 53.1979C158.482 53.1979 157.937 52.9819 157.601 52.5498C157.265 52.1177 157.097 51.6695 157.097 51.2054C157.097 50.9013 157.385 49.9411 157.961 48.3247C158.538 46.7082 158.834 45.4919 158.85 44.6757C158.85 43.7315 158.498 43.2593 157.793 43.2593H157.673C156.297 43.2593 155.137 44.0675 154.192 45.684L154.024 45.972L153.232 49.1889C152.704 51.2854 152.4 52.4137 152.32 52.5738C152.112 53.0059 151.768 53.2219 151.288 53.2219C151.08 53.2219 150.912 53.1739 150.784 53.0779C150.655 52.9819 150.567 52.8859 150.519 52.7898C150.471 52.6938 150.455 52.6138 150.471 52.5498C150.471 52.3417 150.776 51.0374 151.384 48.6367C151.992 46.2361 152.312 44.9318 152.344 44.7237C152.36 44.6437 152.368 44.4597 152.368 44.1716C152.368 43.5474 152.176 43.2353 151.792 43.2353C151.184 43.2353 150.679 44.0355 150.279 45.636C150.183 45.956 150.135 46.1241 150.135 46.1401C150.103 46.2361 149.951 46.2841 149.679 46.2841H149.343C149.247 46.1881 149.199 46.1161 149.199 46.0681Z" fill="black"/>
<path d="M169.941 1.99253C169.941 1.86449 169.965 1.78447 170.013 1.75247C170.061 1.72046 170.165 1.70445 170.325 1.70445H170.469H170.829C170.861 1.73646 171.085 1.95252 171.501 2.35262C171.917 2.75273 172.277 3.09682 172.581 3.38489C172.885 3.67297 173.317 4.1611 173.878 4.84928C174.438 5.53746 174.934 6.18563 175.366 6.79379C175.798 7.40195 176.302 8.21016 176.878 9.21842C177.455 10.2267 177.951 11.2189 178.367 12.1952C178.783 13.1715 179.223 14.3638 179.687 15.7721C180.151 17.1805 180.511 18.5889 180.767 19.9972C181.023 21.4056 181.256 23.03 181.464 24.8705C181.672 26.711 181.768 28.5835 181.752 30.488C181.752 32.3605 181.696 33.9449 181.584 35.2412C180.831 44.3956 177.975 51.7016 173.013 57.159C172.645 57.5591 172.301 57.9112 171.981 58.2153C171.661 58.5193 171.397 58.7754 171.189 58.9835C170.981 59.1915 170.861 59.2955 170.829 59.2955H170.469C170.261 59.2955 170.125 59.2795 170.061 59.2475C169.997 59.2155 169.957 59.1355 169.941 59.0075C170.805 58.1432 171.653 57.151 172.485 56.0307C177.094 49.9011 179.399 41.3869 179.399 30.488C179.399 27.2551 179.191 24.2384 178.775 21.4376C178.359 18.6369 177.847 16.2843 177.238 14.3798C176.63 12.4753 175.886 10.6828 175.006 9.00237C174.126 7.32192 173.325 6.01758 172.605 5.08934C171.885 4.1611 171.093 3.23285 170.229 2.30461C170.197 2.2726 170.165 2.24059 170.133 2.20858C170.101 2.17658 170.077 2.14457 170.061 2.11256C170.045 2.08055 170.021 2.05654 169.989 2.04054L169.941 1.99253Z" fill="black"/>
<path d="M194.811 28.1594C194.811 27.9513 194.923 27.7913 195.147 27.6793H210.439C210.679 27.8073 210.799 27.9673 210.799 28.1594C210.799 28.3354 210.687 28.4875 210.463 28.6155L202.829 28.6395H195.195C194.939 28.5595 194.811 28.3995 194.811 28.1594ZM194.811 32.8166C194.811 32.5765 194.939 32.4165 195.195 32.3365H210.463C210.687 32.4965 210.799 32.6566 210.799 32.8166C210.799 33.0247 210.679 33.1847 210.439 33.2967H195.147C194.923 33.1847 194.811 33.0247 194.811 32.8166Z" fill="black"/>
<path d="M330.879 31.2082H221.722V29.7678H330.879V31.2082Z" fill="black"/>
<path d="M252.642 12.0031C252.642 10.8989 252.722 9.85058 252.882 8.85832C253.042 7.86606 253.226 7.00984 253.434 6.28965C253.642 5.56946 253.939 4.86527 254.323 4.17709C254.707 3.48891 255.011 2.95277 255.235 2.56867C255.459 2.18457 255.795 1.76846 256.243 1.32034C256.691 0.872227 256.955 0.600156 257.035 0.50413C257.115 0.408105 257.315 0.240061 257.636 -1.78814e-06H257.948H258.044C258.268 -1.78814e-06 258.38 0.0720171 258.38 0.216055C258.38 0.264067 258.244 0.432111 257.972 0.720187C257.7 1.00826 257.371 1.43237 256.987 1.99252C256.603 2.55267 256.211 3.24085 255.811 4.05706C255.411 4.87328 255.075 5.97756 254.803 7.36993C254.531 8.76229 254.395 10.3067 254.395 12.0031C254.395 13.6996 254.531 15.236 254.803 16.6124C255.075 17.9887 255.403 19.101 255.787 19.9492C256.171 20.7974 256.563 21.4856 256.963 22.0138C257.363 22.5419 257.7 22.966 257.972 23.2861C258.244 23.6062 258.38 23.7742 258.38 23.7902C258.38 23.9343 258.26 24.0063 258.02 24.0063H257.948H257.636L256.963 23.4301C255.459 22.0698 254.363 20.3733 253.674 18.3408C252.986 16.3083 252.642 14.1957 252.642 12.0031Z" fill="black"/>
<path d="M262.341 7.70604C261.909 7.70604 261.565 7.562 261.309 7.27393C261.052 6.98585 260.924 6.63376 260.924 6.21765C260.924 5.08135 261.349 4.09709 262.197 3.26487C263.045 2.43266 264.101 2.01655 265.366 2.01655C266.822 2.01655 268.038 2.46466 269.015 3.3609C269.991 4.25713 270.487 5.41744 270.503 6.84181C270.503 7.52999 270.343 8.18616 270.023 8.81033C269.703 9.43449 269.319 9.97863 268.871 10.4428C268.422 10.9069 267.782 11.499 266.95 12.2192C266.374 12.7154 265.574 13.4515 264.549 14.4278L263.133 15.7722L264.957 15.7962C267.47 15.7962 268.807 15.7561 268.967 15.6761C269.079 15.6441 269.271 14.9319 269.543 13.5396V13.4675H270.503V13.5396C270.487 13.5876 270.383 14.3158 270.191 15.7241C269.999 17.1325 269.879 17.8687 269.831 17.9327V18.0047H260.924V17.5486V17.2605C260.924 17.1485 260.972 17.0285 261.068 16.9004C261.165 16.7724 261.405 16.4923 261.789 16.0602C262.253 15.5481 262.653 15.1 262.989 14.7159C263.133 14.5558 263.405 14.2598 263.805 13.8276C264.205 13.3955 264.477 13.0995 264.621 12.9394C264.765 12.7794 264.998 12.5153 265.318 12.1472C265.638 11.7791 265.862 11.507 265.99 11.331C266.118 11.1549 266.302 10.9149 266.542 10.6108C266.782 10.3067 266.95 10.0507 267.046 9.8426C267.142 9.63454 267.262 9.40248 267.406 9.14642C267.55 8.89035 267.654 8.63428 267.718 8.37821C267.782 8.12215 267.838 7.88208 267.886 7.65803C267.934 7.43397 267.958 7.1699 267.958 6.86582C267.958 5.85755 267.686 4.98533 267.142 4.24913C266.598 3.51294 265.822 3.14484 264.813 3.14484C264.285 3.14484 263.821 3.28088 263.421 3.55295C263.021 3.82502 262.741 4.08909 262.581 4.34516C262.421 4.60122 262.341 4.75326 262.341 4.80128C262.341 4.81728 262.381 4.82528 262.461 4.82528C262.749 4.82528 263.045 4.93731 263.349 5.16137C263.653 5.38543 263.805 5.75353 263.805 6.26566C263.805 6.66577 263.677 7.00185 263.421 7.27393C263.165 7.546 262.805 7.69003 262.341 7.70604Z" fill="black"/>
<path d="M272.255 11.1149C272.271 11.0189 272.295 10.8909 272.327 10.7308C272.359 10.5708 272.455 10.2667 272.616 9.81858C272.776 9.37046 272.936 8.99436 273.096 8.69028C273.256 8.3862 273.52 8.09012 273.888 7.80205C274.256 7.51397 274.624 7.37794 274.992 7.39394C275.568 7.39394 276.048 7.53798 276.433 7.82605C276.817 8.11413 277.057 8.3862 277.153 8.64227C277.249 8.89834 277.297 9.06638 277.297 9.1464C277.297 9.17841 277.305 9.19441 277.321 9.19441L277.585 8.93034C278.561 7.90608 279.673 7.39394 280.922 7.39394C281.786 7.39394 282.482 7.61 283.01 8.04211C283.538 8.47422 283.81 9.10639 283.826 9.93861C283.842 10.7708 283.538 12.0272 282.914 13.7076C282.29 15.388 281.986 16.4043 282.002 16.7564C282.002 17.1725 282.138 17.3806 282.41 17.3806C282.506 17.3806 282.578 17.3726 282.626 17.3566C283.09 17.2765 283.506 16.9725 283.874 16.4443C284.243 15.9162 284.523 15.276 284.715 14.5238C284.747 14.3958 284.907 14.3318 285.195 14.3318C285.515 14.3318 285.675 14.3958 285.675 14.5238C285.675 14.5398 285.643 14.6598 285.579 14.8839C285.451 15.348 285.275 15.8041 285.051 16.2523C284.827 16.7004 284.459 17.1485 283.946 17.5966C283.434 18.0447 282.882 18.2608 282.29 18.2448C281.538 18.2448 280.994 18.0287 280.658 17.5966C280.322 17.1645 280.154 16.7164 280.154 16.2523C280.154 15.9482 280.442 14.9879 281.018 13.3715C281.594 11.7551 281.89 10.5388 281.906 9.72255C281.906 8.7783 281.554 8.30618 280.85 8.30618H280.73C279.353 8.30618 278.193 9.11439 277.249 10.7308L277.081 11.0189L276.288 14.2357C275.76 16.3323 275.456 17.4606 275.376 17.6206C275.168 18.0527 274.824 18.2688 274.344 18.2688C274.136 18.2688 273.968 18.2208 273.84 18.1248C273.712 18.0287 273.624 17.9327 273.576 17.8367C273.528 17.7407 273.512 17.6606 273.528 17.5966C273.528 17.3886 273.832 16.0842 274.44 13.6836C275.048 11.283 275.368 9.97862 275.4 9.77056C275.416 9.69054 275.424 9.50649 275.424 9.21842C275.424 8.59426 275.232 8.28217 274.848 8.28217C274.24 8.28217 273.736 9.08238 273.336 10.6828C273.24 11.0029 273.192 11.1709 273.192 11.1869C273.16 11.283 273.008 11.331 272.736 11.331H272.399C272.303 11.2349 272.255 11.1629 272.255 11.1149Z" fill="black"/>
<path d="M287.595 0.0240083L287.691 2.02656e-06C287.771 2.02656e-06 287.852 2.02656e-06 287.932 2.02656e-06H288.22L288.892 0.576153C290.396 1.93651 291.492 3.63295 292.181 5.66549C292.869 7.69802 293.213 9.81057 293.213 12.0031C293.213 13.0914 293.133 14.1397 292.973 15.148C292.813 16.1562 292.629 17.0125 292.421 17.7166C292.213 18.4208 291.917 19.125 291.532 19.8292C291.148 20.5334 290.844 21.0695 290.62 21.4376C290.396 21.8057 290.068 22.2138 289.636 22.6619C289.204 23.1101 288.948 23.3741 288.868 23.4541C288.788 23.5342 288.604 23.6862 288.316 23.9103C288.268 23.9583 288.236 23.9903 288.22 24.0063H287.932C287.803 24.0063 287.715 24.0063 287.667 24.0063C287.619 24.0063 287.579 23.9823 287.547 23.9343C287.515 23.8863 287.491 23.8142 287.475 23.7182C287.491 23.7022 287.579 23.5982 287.739 23.4061C290.22 20.8295 291.46 17.0285 291.46 12.0031C291.46 6.97783 290.22 3.17683 287.739 0.600159C287.579 0.408109 287.491 0.304082 287.475 0.288078C287.475 0.160044 287.515 0.0720209 287.595 0.0240083Z" fill="black"/>
<path d="M297.39 2.13658C297.39 1.8005 297.534 1.49642 297.822 1.22435C298.11 0.952274 298.446 0.816238 298.83 0.816238C299.214 0.816238 299.551 0.944272 299.839 1.20034C300.127 1.45641 300.279 1.76849 300.295 2.13658C300.295 2.24861 300.135 4.08109 299.815 7.63402C299.495 11.187 299.327 12.9954 299.311 13.0594C299.279 13.1875 299.126 13.2515 298.854 13.2515C298.566 13.2515 298.406 13.1875 298.374 13.0594C298.358 13.0114 298.19 11.211 297.87 7.65803C297.55 4.1051 297.39 2.26462 297.39 2.13658ZM297.414 16.5404C297.414 16.0922 297.558 15.7401 297.846 15.4841C298.134 15.228 298.486 15.1 298.902 15.1C299.271 15.132 299.591 15.268 299.863 15.5081C300.135 15.7482 300.271 16.0922 300.271 16.5404C300.271 17.0205 300.135 17.3806 299.863 17.6206C299.591 17.8607 299.255 17.9807 298.854 17.9807C298.454 17.9807 298.118 17.8607 297.846 17.6206C297.574 17.3806 297.43 17.0205 297.414 16.5404Z" fill="black"/>
<path d="M225.419 48.9969C225.419 47.8926 225.499 46.8443 225.659 45.852C225.819 44.8598 226.003 44.0035 226.211 43.2834C226.419 42.5632 226.715 41.859 227.1 41.1708C227.484 40.4826 227.788 39.9465 228.012 39.5624C228.236 39.1783 228.572 38.7622 229.02 38.3141C229.468 37.8659 229.732 37.5939 229.812 37.4978C229.892 37.4018 230.092 37.2338 230.412 36.9937H230.725H230.821C231.045 36.9937 231.157 37.0657 231.157 37.2098C231.157 37.2578 231.021 37.4258 230.749 37.7139C230.476 38.002 230.148 38.4261 229.764 38.9862C229.38 39.5464 228.988 40.2346 228.588 41.0508C228.188 41.867 227.852 42.9713 227.58 44.3636C227.308 45.756 227.172 47.3004 227.172 48.9969C227.172 50.6933 227.308 52.2297 227.58 53.6061C227.852 54.9824 228.18 56.0947 228.564 56.9429C228.948 57.7912 229.34 58.4793 229.74 59.0075C230.14 59.5356 230.476 59.9597 230.749 60.2798C231.021 60.5999 231.157 60.7679 231.157 60.7839C231.157 60.928 231.037 61 230.797 61H230.725H230.412L229.74 60.4238C228.236 59.0635 227.14 57.367 226.451 55.3345C225.763 53.302 225.419 51.1894 225.419 48.9969Z" fill="black"/>
<path d="M233.005 48.1086C233.021 48.0126 233.045 47.8846 233.077 47.7245C233.109 47.5645 233.205 47.2604 233.365 46.8123C233.525 46.3642 233.685 45.9881 233.845 45.684C234.005 45.3799 234.269 45.0838 234.638 44.7958C235.006 44.5077 235.374 44.3716 235.742 44.3876C236.318 44.3876 236.798 44.5317 237.182 44.8198C237.566 45.1078 237.806 45.3799 237.902 45.636C237.998 45.892 238.046 46.0601 238.046 46.1401C238.046 46.1721 238.054 46.1881 238.07 46.1881L238.335 45.9241C239.311 44.8998 240.423 44.3876 241.671 44.3876C242.536 44.3876 243.232 44.6037 243.76 45.0358C244.288 45.4679 244.56 46.1001 244.576 46.9323C244.592 47.7645 244.288 49.0209 243.664 50.7013C243.04 52.3817 242.736 53.398 242.752 53.7501C242.752 54.1662 242.888 54.3743 243.16 54.3743C243.256 54.3743 243.328 54.3663 243.376 54.3503C243.84 54.2702 244.256 53.9662 244.624 53.438C244.992 52.9099 245.272 52.2697 245.464 51.5175C245.496 51.3895 245.656 51.3255 245.945 51.3255C246.265 51.3255 246.425 51.3895 246.425 51.5175C246.425 51.5335 246.393 51.6536 246.329 51.8776C246.201 52.3417 246.025 52.7979 245.8 53.246C245.576 53.6941 245.208 54.1422 244.696 54.5903C244.184 55.0384 243.632 55.2545 243.04 55.2385C242.288 55.2385 241.743 55.0224 241.407 54.5903C241.071 54.1582 240.903 53.7101 240.903 53.246C240.903 52.9419 241.191 51.9816 241.767 50.3652C242.344 48.7488 242.64 47.5325 242.656 46.7163C242.656 45.772 242.304 45.2999 241.599 45.2999H241.479C240.103 45.2999 238.943 46.1081 237.998 47.7245L237.83 48.0126L237.038 51.2294C236.51 53.326 236.206 54.4543 236.126 54.6143C235.918 55.0464 235.574 55.2625 235.094 55.2625C234.886 55.2625 234.718 55.2145 234.59 55.1185C234.462 55.0224 234.373 54.9264 234.325 54.8304C234.277 54.7344 234.261 54.6543 234.277 54.5903C234.277 54.3823 234.582 53.0779 235.19 50.6773C235.798 48.2767 236.118 46.9723 236.15 46.7643C236.166 46.6843 236.174 46.5002 236.174 46.2121C236.174 45.588 235.982 45.2759 235.598 45.2759C234.99 45.2759 234.486 46.0761 234.085 47.6765C233.989 47.9966 233.941 48.1646 233.941 48.1806C233.909 48.2767 233.757 48.3247 233.485 48.3247H233.149C233.053 48.2287 233.005 48.1566 233.005 48.1086Z" fill="black"/>
<path d="M253.602 49.3089C253.602 49.3089 253.602 49.2049 253.602 48.9969C253.602 48.7888 253.714 48.6288 253.939 48.5167H261.116V44.9158L261.14 41.3148C261.3 41.1068 261.452 41.0028 261.597 41.0028C261.805 41.0028 261.965 41.1228 262.077 41.3629V48.5167H269.231C269.471 48.6448 269.591 48.8048 269.591 48.9969C269.591 49.1889 269.471 49.3489 269.231 49.477H262.077V56.6309C261.949 56.8549 261.805 56.9669 261.645 56.9669H261.597H261.548C261.356 56.9669 261.212 56.8549 261.116 56.6309V49.477H253.939C253.714 49.3649 253.602 49.2049 253.602 48.9969V49.3089Z" fill="black"/>
<path d="M281.378 41.1228L281.066 41.2428C280.842 41.3228 280.521 41.4029 280.105 41.4829C279.689 41.5629 279.225 41.6189 278.713 41.6509H278.257V40.5466H278.713C279.465 40.5146 280.161 40.3946 280.802 40.1865C281.442 39.9785 281.89 39.7864 282.146 39.6104C282.402 39.4343 282.626 39.2583 282.818 39.0823C282.85 39.0342 282.946 39.0102 283.106 39.0102C283.25 39.0102 283.386 39.0583 283.514 39.1543V46.3322L283.538 53.534C283.65 53.6461 283.746 53.7181 283.826 53.7501C283.906 53.7821 284.098 53.8141 284.403 53.8461C284.707 53.8781 285.203 53.8941 285.891 53.8941H286.515V54.9984H286.251C285.915 54.9504 284.643 54.9264 282.434 54.9264C280.257 54.9264 279.001 54.9504 278.665 54.9984H278.377V53.8941H279.001C279.353 53.8941 279.657 53.8941 279.913 53.8941C280.169 53.8941 280.369 53.8861 280.513 53.8701C280.658 53.8541 280.786 53.8301 280.898 53.7981C281.01 53.7661 281.074 53.7501 281.09 53.7501C281.106 53.7501 281.154 53.7101 281.234 53.6301C281.314 53.55 281.362 53.518 281.378 53.534V41.1228Z" fill="black"/>
<path d="M289.732 37.0177L289.828 36.9937C289.908 36.9937 289.988 36.9937 290.068 36.9937H290.356L291.028 37.5699C292.533 38.9302 293.629 40.6267 294.317 42.6592C295.005 44.6917 295.349 46.8043 295.349 48.9969C295.349 50.0851 295.269 51.1334 295.109 52.1417C294.949 53.1499 294.765 54.0062 294.557 54.7104C294.349 55.4145 294.053 56.1187 293.669 56.8229C293.285 57.5271 292.981 58.0632 292.757 58.4313C292.533 58.7994 292.205 59.2075 291.773 59.6556C291.34 60.1038 291.084 60.3678 291.004 60.4479C290.924 60.5279 290.74 60.6799 290.452 60.904C290.404 60.952 290.372 60.984 290.356 61H290.068C289.94 61 289.852 61 289.804 61C289.756 61 289.716 60.976 289.684 60.928C289.652 60.88 289.628 60.8079 289.612 60.7119C289.628 60.6959 289.716 60.5919 289.876 60.3998C292.357 57.8232 293.597 54.0222 293.597 48.9969C293.597 43.9715 292.357 40.1705 289.876 37.5939C289.716 37.4018 289.628 37.2978 289.612 37.2818C289.612 37.1537 289.652 37.0657 289.732 37.0177Z" fill="black"/>
<path d="M299.503 39.1303C299.503 38.7942 299.647 38.4901 299.935 38.218C300.223 37.946 300.559 37.8099 300.943 37.8099C301.327 37.8099 301.663 37.938 301.951 38.194C302.239 38.4501 302.391 38.7622 302.407 39.1303C302.407 39.2423 302.247 41.0748 301.927 44.6277C301.607 48.1807 301.439 49.9891 301.423 50.0531C301.391 50.1812 301.239 50.2452 300.967 50.2452C300.679 50.2452 300.519 50.1812 300.487 50.0531C300.471 50.0051 300.303 48.2047 299.983 44.6517C299.663 41.0988 299.503 39.2583 299.503 39.1303ZM299.527 53.5341C299.527 53.0859 299.671 52.7339 299.959 52.4778C300.247 52.2217 300.599 52.0937 301.015 52.0937C301.383 52.1257 301.703 52.2617 301.975 52.5018C302.247 52.7419 302.383 53.0859 302.383 53.5341C302.383 54.0142 302.247 54.3743 301.975 54.6143C301.703 54.8544 301.367 54.9744 300.967 54.9744C300.567 54.9744 300.231 54.8544 299.959 54.6143C299.687 54.3743 299.543 54.0142 299.527 53.5341Z" fill="black"/>
<path d="M308.841 48.1086C308.857 48.0126 308.881 47.8846 308.913 47.7245C308.945 47.5645 309.041 47.2604 309.201 46.8123C309.361 46.3642 309.521 45.9881 309.681 45.684C309.841 45.3799 310.105 45.0838 310.473 44.7958C310.841 44.5077 311.21 44.3716 311.578 44.3876C312.154 44.3876 312.634 44.5317 313.018 44.8198C313.402 45.1078 313.642 45.3799 313.738 45.636C313.834 45.892 313.882 46.0601 313.882 46.1401C313.882 46.1721 313.89 46.1881 313.906 46.1881L314.17 45.9241C315.147 44.8998 316.259 44.3876 317.507 44.3876C318.371 44.3876 319.068 44.6037 319.596 45.0358C320.124 45.4679 320.396 46.1001 320.412 46.9323C320.428 47.7645 320.124 49.0209 319.5 50.7013C318.876 52.3817 318.571 53.398 318.587 53.7501C318.587 54.1662 318.723 54.3743 318.996 54.3743C319.092 54.3743 319.164 54.3663 319.212 54.3503C319.676 54.2702 320.092 53.9662 320.46 53.438C320.828 52.9099 321.108 52.2697 321.3 51.5175C321.332 51.3895 321.492 51.3255 321.78 51.3255C322.1 51.3255 322.26 51.3895 322.26 51.5175C322.26 51.5335 322.228 51.6536 322.164 51.8776C322.036 52.3417 321.86 52.7979 321.636 53.246C321.412 53.6941 321.044 54.1422 320.532 54.5903C320.02 55.0384 319.468 55.2545 318.876 55.2385C318.123 55.2385 317.579 55.0224 317.243 54.5903C316.907 54.1582 316.739 53.7101 316.739 53.246C316.739 52.9419 317.027 51.9816 317.603 50.3652C318.179 48.7488 318.475 47.5325 318.491 46.7163C318.491 45.772 318.139 45.2999 317.435 45.2999H317.315C315.939 45.2999 314.778 46.1081 313.834 47.7245L313.666 48.0126L312.874 51.2294C312.346 53.326 312.042 54.4543 311.962 54.6143C311.754 55.0464 311.41 55.2625 310.929 55.2625C310.721 55.2625 310.553 55.2145 310.425 55.1185C310.297 55.0224 310.209 54.9264 310.161 54.8304C310.113 54.7344 310.097 54.6543 310.113 54.5903C310.113 54.3823 310.417 53.0779 311.025 50.6773C311.634 48.2767 311.954 46.9723 311.986 46.7643C312.002 46.6843 312.01 46.5002 312.01 46.2121C312.01 45.588 311.818 45.2759 311.434 45.2759C310.825 45.2759 310.321 46.0761 309.921 47.6765C309.825 47.9966 309.777 48.1646 309.777 48.1806C309.745 48.2767 309.593 48.3247 309.321 48.3247H308.985C308.889 48.2287 308.841 48.1566 308.841 48.1086Z" fill="black"/>
<path d="M324.613 39.1303C324.613 38.7942 324.757 38.4901 325.045 38.218C325.333 37.946 325.669 37.8099 326.053 37.8099C326.438 37.8099 326.774 37.938 327.062 38.194C327.35 38.4501 327.502 38.7622 327.518 39.1303C327.518 39.2423 327.358 41.0748 327.038 44.6277C326.718 48.1807 326.55 49.9891 326.534 50.0531C326.502 50.1812 326.35 50.2452 326.077 50.2452C325.789 50.2452 325.629 50.1812 325.597 50.0531C325.581 50.0051 325.413 48.2047 325.093 44.6517C324.773 41.0988 324.613 39.2583 324.613 39.1303ZM324.637 53.5341C324.637 53.0859 324.781 52.7339 325.069 52.4778C325.357 52.2217 325.709 52.0937 326.125 52.0937C326.494 52.1257 326.814 52.2617 327.086 52.5018C327.358 52.7419 327.494 53.0859 327.494 53.5341C327.494 54.0142 327.358 54.3743 327.086 54.6143C326.814 54.8544 326.478 54.9744 326.077 54.9744C325.677 54.9744 325.341 54.8544 325.069 54.6143C324.797 54.3743 324.653 54.0142 324.637 53.5341Z" fill="black"/>
</svg>
