<svg width="165" height="179" viewBox="0 0 165 179" fill="none" xmlns="http://www.w3.org/2000/svg">
<path fill-rule="evenodd" clip-rule="evenodd" d="M1.28906 2.79688C2.00099 2.79688 2.57812 2.17077 2.57812 1.39844C2.57812 0.626102 2.00099 0 1.28906 0C0.577133 0 0 0.626102 0 1.39844C0 2.17077 0.577133 2.79688 1.28906 2.79688ZM1.28906 120.266C2.00099 120.266 2.57812 119.64 2.57812 118.867C2.57812 118.095 2.00099 117.469 1.28906 117.469C0.577133 117.469 0 118.095 0 118.867C0 119.64 0.577133 120.266 1.28906 120.266ZM110.859 1.39844C110.859 2.17077 110.282 2.79688 109.57 2.79688C108.858 2.79688 108.281 2.17077 108.281 1.39844C108.281 0.626102 108.858 0 109.57 0C110.282 0 110.859 0.626102 110.859 1.39844ZM109.57 120.266C110.282 120.266 110.859 119.64 110.859 118.867C110.859 118.095 110.282 117.469 109.57 117.469C108.858 117.469 108.281 118.095 108.281 118.867C108.281 119.64 108.858 120.266 109.57 120.266ZM2.57812 60.1328C2.57812 60.9051 2.00099 61.5312 1.28906 61.5312C0.577133 61.5312 0 60.9051 0 60.1328C0 59.3605 0.577133 58.7344 1.28906 58.7344C2.00099 58.7344 2.57812 59.3605 2.57812 60.1328ZM1.28906 179C2.00099 179 2.57812 178.374 2.57812 177.602C2.57812 176.829 2.00099 176.203 1.28906 176.203C0.577133 176.203 0 176.829 0 177.602C0 178.374 0.577133 179 1.28906 179ZM110.859 60.1328C110.859 60.9051 110.282 61.5312 109.57 61.5312C108.858 61.5312 108.281 60.9051 108.281 60.1328C108.281 59.3605 108.858 58.7344 109.57 58.7344C110.282 58.7344 110.859 59.3605 110.859 60.1328ZM109.57 179C110.282 179 110.859 178.374 110.859 177.602C110.859 176.829 110.282 176.203 109.57 176.203C108.858 176.203 108.281 176.829 108.281 177.602C108.281 178.374 108.858 179 109.57 179ZM56.7188 1.39844C56.7188 2.17077 56.1416 2.79688 55.4297 2.79688C54.7178 2.79688 54.1406 2.17077 54.1406 1.39844C54.1406 0.626102 54.7178 0 55.4297 0C56.1416 0 56.7188 0.626102 56.7188 1.39844ZM55.4297 120.266C56.1416 120.266 56.7188 119.64 56.7188 118.867C56.7188 118.095 56.1416 117.469 55.4297 117.469C54.7178 117.469 54.1406 118.095 54.1406 118.867C54.1406 119.64 54.7178 120.266 55.4297 120.266ZM165 1.39844C165 2.17077 164.423 2.79688 163.711 2.79688C162.999 2.79688 162.422 2.17077 162.422 1.39844C162.422 0.626102 162.999 0 163.711 0C164.423 0 165 0.626102 165 1.39844ZM163.711 120.266C164.423 120.266 165 119.64 165 118.867C165 118.095 164.423 117.469 163.711 117.469C162.999 117.469 162.422 118.095 162.422 118.867C162.422 119.64 162.999 120.266 163.711 120.266ZM56.7188 60.1328C56.7188 60.9051 56.1416 61.5312 55.4297 61.5312C54.7178 61.5312 54.1406 60.9051 54.1406 60.1328C54.1406 59.3605 54.7178 58.7344 55.4297 58.7344C56.1416 58.7344 56.7188 59.3605 56.7188 60.1328ZM55.4297 179C56.1416 179 56.7188 178.374 56.7188 177.602C56.7188 176.829 56.1416 176.203 55.4297 176.203C54.7178 176.203 54.1406 176.829 54.1406 177.602C54.1406 178.374 54.7178 179 55.4297 179ZM165 60.1328C165 60.9051 164.423 61.5312 163.711 61.5312C162.999 61.5312 162.422 60.9051 162.422 60.1328C162.422 59.3605 162.999 58.7344 163.711 58.7344C164.423 58.7344 165 59.3605 165 60.1328ZM163.711 179C164.423 179 165 178.374 165 177.602C165 176.829 164.423 176.203 163.711 176.203C162.999 176.203 162.422 176.829 162.422 177.602C162.422 178.374 162.999 179 163.711 179Z" fill="white"/>
</svg>
