<svg width="221" height="204" viewBox="0 0 221 204" fill="none" xmlns="http://www.w3.org/2000/svg">
<path d="M12.0843 -83.8008C13.0438 -84.2103 14.0085 -84.6101 14.9781 -85H127.022C127.992 -84.6101 128.956 -84.2103 129.916 -83.8008H12.0843Z" fill="black"/>
<path d="M-10.4618 -71.8091C-9.83676 -72.2134 -9.2085 -72.6131 -8.5771 -73.0083H150.577C151.209 -72.6131 151.837 -72.2134 152.462 -71.8091H-10.4618Z" fill="black"/>
<path d="M-26.5417 -59.8174C-26.0709 -60.22 -25.5974 -60.6198 -25.1215 -61.0166H167.122C167.597 -60.6198 168.071 -60.22 168.542 -59.8174H-26.5417Z" fill="black"/>
<path d="M-39.038 -47.8257C-38.6648 -48.2275 -38.2893 -48.6272 -37.9118 -49.0249H179.912C180.289 -48.6272 180.665 -48.2275 181.038 -47.8257H-39.038Z" fill="black"/>
<path d="M-49.0713 -35.834C-48.7695 -36.2353 -48.4658 -36.635 -48.1601 -37.0332H190.16C190.466 -36.635 190.77 -36.2353 191.071 -35.834H-49.0713Z" fill="black"/>
<path d="M-57.2147 -23.8423C-56.9699 -24.2433 -56.7232 -24.643 -56.4747 -25.0415H198.475C198.723 -24.643 198.97 -24.2433 199.215 -23.8423H-57.2147Z" fill="black"/>
<path d="M-63.805 -11.8506C-63.6081 -12.2514 -63.4094 -12.6511 -63.209 -13.0498H205.209C205.409 -12.6511 205.608 -12.2514 205.805 -11.8506H-63.805Z" fill="black"/>
<path d="M-69.0565 0.141078C-68.9017 -0.259481 -68.7452 -0.659207 -68.5871 -1.05809H210.587C210.745 -0.659207 210.902 -0.259481 211.057 0.141078H-69.0565Z" fill="black"/>
<path d="M-73.113 12.1328C-72.9963 11.7324 -72.878 11.3326 -72.758 10.9336H214.758C214.878 11.3326 214.996 11.7324 215.113 12.1328H-73.113Z" fill="black"/>
<path d="M-76.0733 24.1245C-75.992 23.7242 -75.909 23.3245 -75.8245 22.9253H217.825C217.909 23.3245 217.992 23.7242 218.073 24.1245H-76.0733Z" fill="black"/>
<path d="M-78.0059 36.1162C-77.958 35.716 -77.9085 35.3162 -77.8575 34.917H219.857C219.909 35.3162 219.958 35.716 220.006 36.1162H-78.0059Z" fill="black"/>
<path d="M-78.9575 48.1079C-78.9418 47.7078 -78.9244 47.308 -78.9055 46.9087H220.906C220.924 47.308 220.942 47.7078 220.958 48.1079H-78.9575Z" fill="black"/>
<path d="M-78.9575 60.0996C-78.9732 59.7003 -78.9874 59.3005 -79 58.9004H221C220.987 59.3005 220.973 59.7003 220.958 60.0996H-78.9575Z" fill="black"/>
<path d="M-78.0059 72.0913C-78.0537 71.692 -78.1 71.2923 -78.1446 70.8921H220.145C220.1 71.2923 220.054 71.692 220.006 72.0913H-78.0059Z" fill="black"/>
<path d="M-76.0733 84.083C-76.1545 83.6838 -76.234 83.2841 -76.3119 82.8838H218.312C218.234 83.2841 218.154 83.6838 218.073 84.083H-76.0733Z" fill="black"/>
<path d="M-73.113 96.0747C-73.2293 95.6756 -73.344 95.2759 -73.457 94.8755H215.457C215.344 95.2759 215.229 95.6756 215.113 96.0747H-73.113Z" fill="black"/>
<path d="M-69.0565 108.066C-69.2107 107.667 -69.3632 107.268 -69.514 106.867H211.514C211.363 107.268 211.211 107.667 211.057 108.066H-69.0565Z" fill="black"/>
<path d="M-63.805 120.058C-64.0009 119.659 -64.1951 119.26 -64.3875 118.859H206.388C206.195 119.26 206.001 119.659 205.805 120.058H-63.805Z" fill="black"/>
<path d="M-57.2147 132.05C-57.4581 131.651 -57.6997 131.252 -57.9394 130.851H199.939C199.7 131.252 199.458 131.651 199.215 132.05H-57.2147Z" fill="black"/>
<path d="M-49.0713 144.041C-49.3707 143.643 -49.6683 143.244 -49.9638 142.842H191.964C191.668 143.244 191.371 143.643 191.071 144.041H-49.0713Z" fill="black"/>
<path d="M-39.038 156.033C-39.4075 155.635 -39.7748 155.236 -40.14 154.834H182.14C181.775 155.236 181.407 155.635 181.038 156.033H-39.038Z" fill="black"/>
<path d="M-26.5417 168.025C-27.006 167.628 -27.4678 167.228 -27.9272 166.826H169.927C169.468 167.228 169.006 167.628 168.542 168.025H-26.5417Z" fill="black"/>
<path d="M-10.4618 180.017C-11.0732 179.621 -11.6815 179.221 -12.2867 178.817H154.287C153.682 179.221 153.073 179.621 152.462 180.017H-10.4618Z" fill="black"/>
<path d="M12.0843 192.008C11.1683 191.617 10.257 191.218 9.35039 190.809H132.65C131.743 191.218 130.832 191.617 129.916 192.008H12.0843Z" fill="black"/>
<path d="M90.0736 202.801C83.8274 203.592 77.4614 204 71 204C64.5386 204 58.1726 203.592 51.9264 202.801H90.0736Z" fill="black"/>
</svg>
