<svg width="171" height="101" viewBox="0 0 171 101" fill="none" xmlns="http://www.w3.org/2000/svg">
<path fill-rule="evenodd" clip-rule="evenodd" d="M50.8013 0L52.4039 0.894574L75.4006 13.7316L98.3974 0.894574L100 0L101.603 0.894574L124.599 13.7316L147.596 0.894574L149.199 0L150.801 0.894574L173.798 13.7316L196.795 0.894574L200 6.59977L175.401 20.3314L173.798 21.2259L172.195 20.3314L149.199 7.49434L126.202 20.3314L124.599 21.2259L122.997 20.3314L100 7.49434L77.0032 20.3314L75.4006 21.2259L73.7981 20.3314L50.8013 7.49434L27.8045 20.3314L26.2019 21.2259L24.5994 20.3314L0 6.59977L3.20515 0.894574L26.2019 13.7316L49.1987 0.894574L50.8013 0ZM50.8013 39.887L52.4039 40.7816L75.4006 53.6186L98.3974 40.7816L100 39.887L101.603 40.7816L124.599 53.6186L147.596 40.7816L149.199 39.887L150.801 40.7816L173.798 53.6186L196.795 40.7816L200 46.4868L175.401 60.2184L173.798 61.113L172.195 60.2184L149.199 47.3814L126.202 60.2184L124.599 61.113L122.997 60.2184L100 47.3814L77.0032 60.2184L75.4006 61.113L73.7981 60.2184L50.8013 47.3814L27.8045 60.2184L26.2019 61.113L24.5994 60.2184L0 46.4868L3.20515 40.7816L26.2019 53.6186L49.1987 40.7816L50.8013 39.887ZM52.4039 80.6686L50.8013 79.7741L49.1987 80.6686L26.2019 93.5057L3.20515 80.6686L0 86.3738L24.5994 100.105L26.2019 101L27.8045 100.105L50.8013 87.2684L73.7981 100.105L75.4006 101L77.0032 100.105L100 87.2684L122.997 100.105L124.599 101L126.202 100.105L149.199 87.2684L172.195 100.105L173.798 101L175.401 100.105L200 86.3738L196.795 80.6686L173.798 93.5057L150.801 80.6686L149.199 79.7741L147.596 80.6686L124.599 93.5057L101.603 80.6686L100 79.7741L98.3974 80.6686L75.4006 93.5057L52.4039 80.6686Z" fill="black" fill-opacity="0.3"/>
</svg>
