<svg width="181" height="177" viewBox="0 0 181 177" fill="none" xmlns="http://www.w3.org/2000/svg">
<path opacity="0.0526316" d="M14.0629 142.617C17.882 147.697 30.0882 156.199 48.3604 149.561C71.2007 141.264 80.0343 119.272 100.42 107.869C115.465 99.452 155.894 86.8183 179.141 100.779" stroke="white" stroke-width="1.45842"/>
<path opacity="0.105263" d="M10.2959 131.966C13.563 137.418 24.8136 147.149 43.6796 142.457C67.2621 136.593 78.3464 115.644 99.8122 106.434C115.655 99.636 157.184 91.2969 178.844 107.611" stroke="white" stroke-width="1.45842"/>
<path opacity="0.157895" d="M7.45003 121.172C10.1293 126.936 20.301 137.789 39.5541 135.095C63.6205 131.728 76.8341 112.052 99.1451 105.136C115.612 100.031 157.785 96.0777 177.621 114.566" stroke="white" stroke-width="1.45842"/>
<path opacity="0.210526" d="M5.53528 110.332C7.59734 116.343 16.5788 128.2 36.008 127.533C60.2946 126.7 75.4928 108.513 98.4046 103.966C115.315 100.61 157.67 101.087 175.465 121.547" stroke="white" stroke-width="1.45842"/>
<path opacity="0.263158" d="M4.55142 99.5417C5.97372 105.736 13.6664 118.467 33.059 119.834C57.2996 121.543 74.3158 105.045 97.5774 102.918C114.746 101.348 156.819 106.248 172.378 128.456" stroke="white" stroke-width="1.45842"/>
<path opacity="0.315789" d="M4.48805 88.8999C5.25499 95.2089 11.5747 108.674 30.718 112.06C54.6472 116.294 73.295 101.664 96.6515 101.98C113.89 102.213 155.221 111.484 168.372 135.196" stroke="white" stroke-width="1.45842"/>
<path opacity="0.368421" d="M5.32459 78.5014C5.42778 84.856 10.3052 98.9075 28.9896 104.276C52.3451 110.988 72.4202 98.387 95.6158 101.142C112.736 103.176 152.87 116.715 163.471 141.672" stroke="white" stroke-width="1.45842"/>
<path opacity="0.421053" d="M7.03075 68.439C6.46904 74.7696 9.85083 89.2539 27.8716 96.5463C50.3975 105.662 71.6799 95.2282 94.4604 100.393C111.274 104.204 149.773 121.864 157.707 147.792" stroke="white" stroke-width="1.45842"/>
<path opacity="0.473684" d="M9.56661 58.8018C8.34617 65.039 10.1952 79.7974 27.3549 88.9332C48.8045 100.353 71.061 92.2011 93.1769 99.718C109.5 105.266 145.942 126.853 151.122 153.468" stroke="white" stroke-width="1.45842"/>
<path opacity="0.526316" d="M12.8831 49.674C11.0173 55.7495 11.3134 70.6202 27.424 81.4995C47.5622 95.0986 70.549 89.3174 91.7579 99.1046C107.412 106.328 141.397 131.606 143.766 158.617" stroke="white" stroke-width="1.45842"/>
<path opacity="0.578947" d="M16.9229 41.1344C14.4321 46.9815 13.172 61.8018 28.057 74.3053C46.6632 89.9346 70.1285 86.5876 90.198 98.5378C105.011 107.358 136.168 136.049 135.7 163.159" stroke="white" stroke-width="1.45842"/>
<path opacity="0.631579" d="M21.6202 33.2556C18.5319 38.8105 15.7293 53.4178 29.2256 67.4085C46.096 84.8969 69.7826 84.0206 88.4929 98.003C102.302 108.323 130.289 140.113 126.99 167.026" stroke="white" stroke-width="1.45842"/>
<path opacity="0.684211" d="M26.9026 26.1027C23.2505 31.3043 18.9361 45.5387 30.8959 60.8633C45.8456 80.0191 69.4941 81.6233 86.6402 97.4845C99.2952 109.191 123.805 143.733 117.71 170.153" stroke="white" stroke-width="1.45842"/>
<path opacity="0.736842" d="M32.691 19.7325C28.5151 24.5239 22.7363 38.2294 33.0285 54.7201C45.8937 75.3334 69.2449 79.4004 84.6389 96.9668C96.0008 109.932 116.766 146.846 107.942 172.485" stroke="white" stroke-width="1.45842"/>
<path opacity="0.789474" d="M38.9007 14.1941C34.2467 18.5228 27.0668 31.5493 35.5786 49.0253C46.2184 70.8703 69.0166 77.3556 82.4898 96.4346C92.434 110.516 109.226 149.398 97.7704 173.974" stroke="white" stroke-width="1.45842"/>
<path opacity="0.842105" d="M45.4424 9.52653C40.3614 13.3451 31.859 25.5498 38.4973 43.8197C46.7951 66.6571 68.7903 75.4896 80.1952 95.8723C88.6128 110.916 101.248 151.34 87.2859 174.584" stroke="white" stroke-width="1.45842"/>
<path opacity="0.894737" d="M52.2234 5.76002C46.771 9.02667 37.0393 20.2759 41.7312 39.1395C47.5961 62.719 68.5475 73.8019 77.759 95.265C84.5578 111.106 92.898 152.629 76.5823 174.287" stroke="white" stroke-width="1.45842"/>
<path opacity="0.947368" d="M59.1481 2.91452C53.3841 5.59342 42.5296 15.7639 45.2238 35.0145C48.5915 59.0778 68.2696 72.2898 75.1868 94.598C80.2923 111.063 84.2459 153.23 65.7554 173.064" stroke="white" stroke-width="1.45842"/>
<path d="M66.1193 1.00002C60.1069 3.06182 48.2486 12.0421 48.9156 31.4689C49.7492 55.7524 67.9382 70.9486 72.4855 93.8575C75.8417 110.766 75.3654 153.115 54.9028 170.908" stroke="white" stroke-width="1.45842"/>
</svg>
